<?xml version="1.0"?>
<svg xmlns="http://www.w3.org/2000/svg" xmlns:xlink="http://www.w3.org/1999/xlink" version="1.1" id="Capa_1" x="0px" y="0px" viewBox="0 0 57 57" style="enable-background:new 0 0 57 57;" xml:space="preserve" width="512px" height="512px" class=""><g><g>
	<g>
		<polygon style="fill:#DCD6CD;" points="0,5 0,44 28,44 56,44 56,5   " data-original="#DCD6CD"/>
		<path style="fill:#E8E3D9;" d="M30.965,27.107c-1.637,1.462-4.292,1.462-5.93,0l-2.087-1.843C16.419,31.091,0,44,0,44h21.607    h12.787H56c0,0-16.419-12.909-22.948-18.736L30.965,27.107z" data-original="#E8E3D9"/>
		<path style="fill:#EFEBDE;" d="M0,5l25.035,22.107c1.637,1.462,4.292,1.462,5.93,0L56,5H0z" data-original="#EFEBDE"/>
	</g>
	<g>
		<circle style="fill:#046380" cx="46" cy="41" r="11" data-original="#76C9B0" class="active-path" data-old_color="#76C9B0"/>
		<path style="fill:#FFFFFF" d="M52,40h-5v-5c0-0.552-0.447-1-1-1s-1,0.448-1,1v6c0,0.552,0.447,1,1,1h6c0.553,0,1-0.448,1-1    S52.553,40,52,40z" data-original="#FFFFFF" class=""/>
	</g>
</g></g> </svg>
