<?xml version="1.0"?>
<svg xmlns="http://www.w3.org/2000/svg" height="512px" viewBox="0 0 512 511" width="512px" class=""><g><path d="m256.003906 239.355469c65.957032 0 119.425782-53.46875 119.425782-119.429688 0-65.957031-53.46875-119.425781-119.425782-119.425781-65.957031 0-119.429687 53.46875-119.429687 119.425781 0 65.960938 53.472656 119.429688 119.429687 119.429688zm-21.535156-162.171875 21.527344 21.527344 21.527344-21.527344c14.042968-14.039063 35.238281 7.191406 21.210937 21.214844l-21.523437 21.527343 21.523437 21.527344c14.03125 14.027344-7.171875 35.25-21.210937 21.210937l-21.527344-21.527343-21.527344 21.527343c-14.042969 14.042969-35.238281-7.1875-21.210938-21.210937l21.523438-21.527344-21.523438-21.527343c-14.042968-14.042969 7.1875-35.238282 21.210938-21.214844zm0 0" data-original="#000000" class="active-path" data-old_color="#E13747" fill="#F7263A"/><path d="m139.15625 311.382812c0 29.726563-24.097656 53.824219-53.820312 53.824219-29.726563 0-53.824219-24.097656-53.824219-53.824219 0-29.722656 24.097656-53.820312 53.824219-53.820312 29.722656 0 53.820312 24.097656 53.820312 53.820312zm0 0" data-original="#000000" class="active-path" data-old_color="#E13747" fill="#F7263A"/><path d="m309.824219 311.382812c0 29.726563-24.097657 53.824219-53.824219 53.824219s-53.824219-24.097656-53.824219-53.824219c0-29.722656 24.097657-53.820312 53.824219-53.820312s53.824219 24.097656 53.824219 53.820312zm0 0" data-original="#000000" class="active-path" data-old_color="#E13747" fill="#F7263A"/><path d="m480.488281 311.382812c0 29.726563-24.097656 53.824219-53.824219 53.824219-29.722656 0-53.820312-24.097656-53.820312-53.824219 0-29.722656 24.097656-53.820312 53.820312-53.820312 29.726563 0 53.824219 24.097656 53.824219 53.820312zm0 0" data-original="#000000" class="active-path" data-old_color="#E13747" fill="#F7263A"/><path d="m426.019531 365.210938c-47.007812.347656-84.617187 39.277343-84.683593 86.273437v-.941406c0-47.34375-38.558594-85.683594-85.980469-85.332031-47.007813.347656-84.617188 39.277343-84.683594 86.273437v-.941406c0-47.34375-38.558594-85.683594-85.984375-85.332031-47.050781.347656-84.6875 39.347656-84.6875 86.402343v45.878907c0 8.285156 6.714844 15 15 15h140.664062c8.28125 0 14.996094-6.710938 15-14.992188.007813 8.28125 6.71875 14.992188 15 14.992188h140.667969c8.28125 0 14.996094-6.710938 15-14.992188.003907 8.28125 6.71875 14.992188 15 14.992188h140.664063c8.285156 0 15-6.714844 15-15l.003906-46.949219c0-47.34375-38.554688-85.683594-85.980469-85.332031zm0 0" data-original="#000000" class="active-path" data-old_color="#E13747" fill="#F7263A"/></g> </svg>
