<?xml version="1.0"?>
<svg xmlns="http://www.w3.org/2000/svg" xmlns:xlink="http://www.w3.org/1999/xlink" version="1.1" id="Layer_1" x="0px" y="0px" viewBox="0 0 501.944 501.944" style="enable-background:new 0 0 501.944 501.944;" xml:space="preserve" width="512px" height="512px" class=""><g transform="matrix(0.384896 0 0 0.384896 154.374 154.374)"><polygon style="fill:#334A5E;" points="377.275,343.903 343.838,377.339 309.357,342.858 342.793,309.421 " data-original="#334A5E"/><path style="fill:#FFD15C;" d="M486.989,487.054L486.989,487.054c-19.853,19.853-52.245,19.853-72.098,0l-98.22-98.22l72.098-72.098  l98.22,98.22C506.842,434.809,506.842,467.201,486.989,487.054z" data-original="#FFD15C" class=""/><path style="fill:#40596B;" d="M337.569,57.601c-77.322-76.278-201.665-77.322-278.988,0s-78.367,200.62-1.045,277.943  c76.278,77.322,201.665,77.322,278.988,1.045S413.847,134.923,337.569,57.601z" data-original="#40596B" class=""/><path style="fill:#F2F2F2;" d="M306.222,306.286c-60.604,59.559-158.824,59.559-218.384-1.045  c-60.604-59.559-59.559-157.78,1.045-217.339s158.824-59.559,218.384,1.045C366.826,148.507,366.826,246.727,306.222,306.286z" data-original="#F2F2F2" class=""/><path style="fill:#84DBFF;" d="M275.92,275.984c-43.886,42.841-114.939,42.841-157.78,0c-43.886-43.886-42.841-113.894,0-157.78  c43.886-42.841,114.939-42.841,157.78,0C319.806,162.09,319.806,232.099,275.92,275.984z" data-original="#84DBFF" class=""/><path style="fill:#54C0EB;" d="M251.887,251.952c-30.302,30.302-79.412,30.302-109.714,0s-30.302-79.412,0-109.714  s79.412-30.302,109.714,0C282.189,172.539,282.189,221.65,251.887,251.952z" data-original="#54C0EB" class=""/><g>
	<ellipse style="fill:#FFFFFF;" cx="135.138" cy="159.887" rx="16.718" ry="16.718" data-original="#FFFFFF"/>
	<ellipse style="fill:#FFFFFF;" cx="159.992" cy="175.957" rx="8.359" ry="8.359" data-original="#FFFFFF"/>
</g><polygon style="fill:#F8B64C;" points="388.769,316.735 315.626,387.788 345.928,418.09 418.026,345.992 " data-original="#F8B64C" class=""/></g> </svg>
