<?xml version="1.0"?>
<svg xmlns="http://www.w3.org/2000/svg" height="512px" version="1.1" viewBox="0 -54 512.00001 512" width="512px" class=""><g><g id="surface1">
<path d="M 0 110.644531 L 452.699219 110.644531 L 452.699219 404.632812 L 0 404.632812 Z M 0 110.644531 " style="fill:#EBE4DA" data-original="#FFB74F" class="" data-old_color="#FFB74F"/>
<path d="M 452.699219 110.644531 L 226.351562 307.867188 L 0 110.644531 Z M 452.699219 110.644531 " style="fill:#F0EFEA" data-original="#FFDF48" class="" data-old_color="#FFDF48"/>
<path d="M 226.351562 110.644531 L 452.699219 110.644531 L 452.699219 404.632812 L 226.351562 404.632812 Z M 226.351562 110.644531 " style="fill:#EBE4DA" data-original="#FF9A00" class="" data-old_color="#FFD400"/>
<path d="M 452.699219 110.644531 L 226.351562 307.867188 L 226.351562 110.644531 Z M 452.699219 110.644531 " style="fill:#F0EFEA" data-original="#FFD400" class="" data-old_color="#FFD400"/>
<path d="M 512 87.070312 L 429.191406 75.039062 L 392.160156 0 L 355.125 75.039062 L 272.316406 87.070312 L 332.238281 145.476562 L 318.09375 227.953125 L 392.160156 189.015625 L 466.222656 227.953125 L 452.078125 145.476562 Z M 512 87.070312 " style="fill:#FFE800" data-original="#00BB64" class="active-path" data-old_color="#E8FF00"/>
</g></g> </svg>
